<?xml version="1.0" encoding="utf-8"?>
<!-- Generator: Adobe Illustrator 23.0.4, SVG Export Plug-In . SVG Version: 6.00 Build 0)  -->
<svg version="1.1" id="Layer_1" xmlns="http://www.w3.org/2000/svg" xmlns:xlink="http://www.w3.org/1999/xlink" x="0px" y="0px"
	 viewBox="0 0 64 64" style="enable-background:new 0 0 64 64;" xml:space="preserve">
<path d="M32.54,44.58l23-22c0.6-0.57,0.62-1.52,0.05-2.12c-0.57-0.6-1.52-0.62-2.12-0.05L31.52,41.4L10.56,20.44
	c-0.59-0.59-1.54-0.59-2.12,0c-0.59,0.59-0.59,1.54,0,2.12l22,22c0.01,0.01,0.01,0.01,0.02,0.01c0.14,0.14,0.3,0.24,0.47,0.31
	c0.01,0,0.01,0,0.02,0.01C31.13,44.96,31.31,45,31.5,45c0.19,0,0.38-0.04,0.56-0.11c0.06-0.02,0.1-0.07,0.16-0.1
	C32.32,44.73,32.44,44.68,32.54,44.58z"/>
</svg>
